Coordinates
version=1
nRows=38
nColumns=12
inDegrees=yes

Units are S.I. units (second, meters, Newtons, ...)
Angles are in degrees

endheader
time	SC_y	SC_z	SC_x	AC_y	AC_z	AC_x	GH_y	GH_z	GH_yy	EL_x	PS_y
       0.0              -29.06          4.336          64.41          69.45         -2.177         -16.03          65.75          66.68          -72.7          67.26          63.43
   0.03586              -29.07          4.335          64.41          69.45         -2.177         -16.02          65.74          66.67         -72.68          67.26          63.43
   0.07173              -29.07          4.334           64.4          69.45         -2.178         -16.02          65.73          66.66         -72.66          67.27          63.43
    0.1076              -29.07          4.334           64.4          69.45         -2.179         -16.02          65.72          66.65         -72.63          67.28          63.43
    0.1435              -29.07          4.333          64.39          69.45          -2.18         -16.02           65.7          66.63         -72.61          67.29          63.43
    0.1793              -29.07          4.332          64.38          69.45         -2.181         -16.01          65.69          66.62         -72.58          67.29          63.44
    0.2152              -29.08          4.331          64.38          69.45         -2.182         -16.01          65.68           66.6         -72.55           67.3          63.44
     0.251              -29.08           4.33          64.37          69.45         -2.183         -16.01          65.66          66.58         -72.52          67.31          63.44
    0.2869              -29.08          4.329          64.36          69.44         -2.184          -16.0          65.64          66.56         -72.49          67.32          63.44
    0.3228              -29.08          4.328          64.35          69.44         -2.185          -16.0          65.63          66.54         -72.45          67.33          63.45
    0.3586              -29.09          4.327          64.34          69.44         -2.186         -15.99          65.61          66.52         -72.41          67.34          63.45
    0.3945              -29.09          4.325          64.33          69.44         -2.187         -15.99          65.59           66.5         -72.37          67.36          63.45
    0.4304              -29.09          4.324          64.32          69.44         -2.189         -15.98          65.57          66.47         -72.32          67.37          63.46
    0.4662               -29.1          4.322          64.31          69.43          -2.19         -15.98          65.54          66.45         -72.27          67.38          63.46
    0.5021               -29.1          4.321           64.3          69.43         -2.192         -15.97          65.52          66.42         -72.22           67.4          63.47
     0.538              -29.11          4.319          64.28          69.43         -2.194         -15.97          65.49          66.38         -72.16          67.42          63.47
    0.5738              -29.11          4.317          64.27          69.43         -2.196         -15.96          65.46          66.35          -72.1          67.44          63.48
    0.6097              -29.12          4.315          64.25          69.42         -2.198         -15.95          65.43          66.31         -72.03          67.46          63.48
    0.6456              -29.12          4.312          64.24          69.42           -2.2         -15.94          65.39          66.27         -71.96          67.48          63.49
    0.6814              -29.13           4.31          64.22          69.42         -2.203         -15.93          65.35          66.22         -71.88           67.5           63.5
    0.7173              -29.14          4.307          64.19          69.41         -2.206         -15.93          65.31          66.17         -71.79          67.53           63.5
    0.7531              -29.14          4.304          64.17          69.41         -2.209         -15.91          65.26          66.12         -71.69          67.56          63.51
     0.789              -29.15          4.301          64.15           69.4         -2.212          -15.9          65.21          66.06         -71.58          67.59          63.52
    0.8249              -29.16          4.297          64.12           69.4         -2.216         -15.89          65.15          65.99         -71.46          67.63          63.53
    0.8607              -29.17          4.293          64.08          69.39          -2.22         -15.87          65.08          65.92         -71.33          67.67          63.54
    0.8966              -29.18          4.288          64.05          69.39         -2.225         -15.86          65.01          65.84         -71.18          67.71          63.55
    0.9325               -29.2          4.283          64.01          69.38          -2.23         -15.84          64.93          65.74         -71.01          67.76          63.57
    0.9683              -29.21          4.277          63.96          69.37         -2.236         -15.82          64.84          65.64         -70.82          67.82          63.58
     1.004              -29.23           4.27          63.91          69.36         -2.243         -15.79          64.73          65.52         -70.61          67.88           63.6
      1.04              -29.25          4.262          63.86          69.35          -2.25         -15.77          64.62          65.39         -70.37          67.95          63.62
     1.076              -29.27          4.254          63.79          69.34         -2.259         -15.74          64.48          65.23          -70.1          68.04          63.64
     1.112              -29.29          4.244          63.71          69.33         -2.269          -15.7          64.33          65.06         -69.78          68.13          63.67
     1.148              -29.32          4.232          63.63          69.31          -2.28         -15.66          64.15          64.85         -69.42          68.24           63.7
     1.184              -29.36          4.219          63.52          69.29         -2.294         -15.61          63.95          64.62         -68.99          68.36          63.74
     1.219              -29.39          4.203          63.41          69.27         -2.309         -15.56          63.71          64.34          -68.5          68.51          63.78
     1.255              -29.44          4.185          63.27          69.25         -2.328         -15.49          63.42          64.02         -67.91          68.69          63.83
     1.291               -29.5          4.163           63.1          69.22          -2.35         -15.42          63.09          63.63         -67.22          68.89          63.88
     1.327              -29.56          4.137           62.9          69.18         -2.376         -15.32          62.68          63.17         -66.39          69.14          63.95
